# xmcd
#
# Track frame offsets:
#	150
#	18123
#	34265
#	51750
#	69268
#	91205
#	107410
#	130000
#	146230
#	160425
#	180370
#	198568
#
# Disc length: 2886 seconds
#
# Revision: 1
# Processed by: cddbd v1.5.1PL0 Copyright (c) Steve Scherf et al.
# Submitted via: CDex 1.50Beta5
#
DISCID=9a0b440c
DTITLE=BoA - ID;ピースB
DYEAR=2002
DGENRE=Pop
TTITLE0=ID;ピースB
TTITLE1=カム・トゥ・ミー
TTITLE2=ハート-オフ
TTITLE3=サラ
TTITLE4=アイム・ソーリー
TTITLE5=ノー・ウェイ
TTITLE6=エヴリ・ブレス・ユー・ハート
TTITLE7=ホワット・エバー
TTITLE8=アイム・ユア・レディー・トゥナイト
TTITLE9=ヤング・ラヴ
TTITLE10=レッティング・ユー・ゴー
TTITLE11=サムデイ・サムウェアー
EXTD=
EXTT0=
EXTT1=
EXTT2=
EXTT3=
EXTT4=
EXTT5=
EXTT6=
EXTT7=
EXTT8=
EXTT9=
EXTT10=
EXTT11=
PLAYORDER=
